<svg width="27" height="30" viewBox="0 0 27 30" fill="none" xmlns="http://www.w3.org/2000/svg">
<path fill-rule="evenodd" clip-rule="evenodd" d="M17.9189 21.227L23.7425 24.8038C24.0058 24.9649 24.5042 24.9146 24.6873 24.5822L26.9289 20.542C27.112 20.2097 26.9105 19.7239 26.6472 19.5628L20.7435 15.9367L17.9189 17.6714V21.227ZM9.07895 8.77192L3.25753 5.19511C2.99533 5.03507 2.49477 5.08879 2.31166 5.41894L0.0710613 9.46131C-0.113127 9.79258 0.0894919 10.2761 0.350606 10.4361L6.25546 14.0633L9.07895 12.3286V8.77192ZM10.6175 22.157V29.2513C10.6175 29.5725 10.9132 30 11.2784 30H15.7238C16.0889 30 16.3825 29.5714 16.3825 29.2502V18.616L10.6175 22.157ZM15.7238 0H11.2784C10.9132 0 10.6175 0.427516 10.6175 0.746475V11.384L16.3825 7.84302V0.746475C16.3825 0.427516 16.0889 0 15.7238 0ZM26.9289 9.46131L24.6883 5.42006C24.5052 5.08991 24.0047 5.03507 23.7436 5.19623L0.352771 19.5628C0.0894907 19.7239 -0.112043 20.2097 0.0710613 20.5409L2.31166 24.5822C2.49694 24.9146 2.99532 24.9661 3.2586 24.8038L26.6494 10.4361C26.9105 10.2761 27.1131 9.79258 26.9289 9.46243V9.46131Z" fill="#36F5BF"/>
</svg>
